<?xml version="1.0" standalone="no"?>
<!DOCTYPE svg PUBLIC "-//W3C//DTD SVG 20010904//EN"
 "http://www.w3.org/TR/2001/REC-SVG-20010904/DTD/svg10.dtd">
<svg version="1.0" xmlns="http://www.w3.org/2000/svg"
 width="192.000000pt" height="192.000000pt" viewBox="0 0 192.000000 192.000000"
 preserveAspectRatio="xMidYMid meet">
<metadata>
Created by potrace 1.14, written by Peter Selinger 2001-2017
</metadata>
<g transform="translate(0.000000,192.000000) scale(0.100000,-0.100000)"
fill="#000000" stroke="none">
<path d="M648 1125 c-119 -38 -102 -151 28 -184 115 -29 124 -33 124 -57 0
-18 -7 -24 -34 -29 -40 -8 -72 6 -81 36 -6 18 -13 20 -68 17 -33 -2 -62 -8
-64 -13 -6 -19 36 -74 69 -91 41 -22 197 -25 245 -5 34 14 63 62 63 103 0 51
-64 98 -156 112 -66 11 -84 18 -84 32 0 18 37 33 62 26 10 -2 25 -13 32 -24
11 -15 24 -18 70 -17 59 2 67 10 46 50 -27 49 -163 73 -252 44z"/>
<path d="M970 946 l0 -163 45 -1 45 -1 1 107 0 107 28 -97 c16 -53 32 -101 35
-107 4 -6 24 -11 45 -11 38 0 38 1 55 58 45 148 51 153 51 39 l0 -92 43 -1
c37 -2 42 1 43 20 0 29 0 267 0 289 -1 16 -10 18 -73 15 l-72 -3 -26 -83 -25
-84 -19 69 c-30 106 -27 103 -106 103 l-70 0 0 -164z"/>
</g>
</svg>
